<mxfile host="app.diagrams.net" agent="Mozilla/5.0 (Windows NT 10.0; Win64; x64) AppleWebKit/537.36 (KHTML, like Gecko) Chrome/131.0.0.0 Safari/537.36" version="25.0.1" pages="2">
  <diagram id="C5RBs43oDa-KdzZeNtuy" name="Page-1">
    <mxGraphModel grid="1" page="1" gridSize="10" guides="1" tooltips="1" connect="1" arrows="1" fold="1" pageScale="1" pageWidth="827" pageHeight="1169" math="0" shadow="0">
      <root>
        <mxCell id="WIyWlLk6GJQsqaUBKTNV-0" />
        <mxCell id="WIyWlLk6GJQsqaUBKTNV-1" parent="WIyWlLk6GJQsqaUBKTNV-0" />
        <mxCell id="zkfFHV4jXpPFQw0GAbJ--0" value="Sombreros" style="swimlane;fontStyle=2;align=center;verticalAlign=top;childLayout=stackLayout;horizontal=1;startSize=26;horizontalStack=0;resizeParent=1;resizeLast=0;collapsible=1;marginBottom=0;rounded=0;shadow=0;strokeWidth=1;" parent="WIyWlLk6GJQsqaUBKTNV-1" vertex="1">
          <mxGeometry x="220" y="120" width="160" height="190" as="geometry">
            <mxRectangle x="230" y="140" width="160" height="26" as="alternateBounds" />
          </mxGeometry>
        </mxCell>
        <mxCell id="zkfFHV4jXpPFQw0GAbJ--1" value="Id    " style="text;align=left;verticalAlign=top;spacingLeft=4;spacingRight=4;overflow=hidden;rotatable=0;points=[[0,0.5],[1,0.5]];portConstraint=eastwest;" parent="zkfFHV4jXpPFQw0GAbJ--0" vertex="1">
          <mxGeometry y="26" width="160" height="26" as="geometry" />
        </mxCell>
        <mxCell id="zkfFHV4jXpPFQw0GAbJ--2" value="Nombre" style="text;align=left;verticalAlign=top;spacingLeft=4;spacingRight=4;overflow=hidden;rotatable=0;points=[[0,0.5],[1,0.5]];portConstraint=eastwest;rounded=0;shadow=0;html=0;" parent="zkfFHV4jXpPFQw0GAbJ--0" vertex="1">
          <mxGeometry y="52" width="160" height="26" as="geometry" />
        </mxCell>
        <mxCell id="zkfFHV4jXpPFQw0GAbJ--3" value="Marca " style="text;align=left;verticalAlign=top;spacingLeft=4;spacingRight=4;overflow=hidden;rotatable=0;points=[[0,0.5],[1,0.5]];portConstraint=eastwest;rounded=0;shadow=0;html=0;" parent="zkfFHV4jXpPFQw0GAbJ--0" vertex="1">
          <mxGeometry y="78" width="160" height="26" as="geometry" />
        </mxCell>
        <mxCell id="jVMNcpTjmxNYDDyI9EW5-1" value="Categoria" style="text;align=left;verticalAlign=top;spacingLeft=4;spacingRight=4;overflow=hidden;rotatable=0;points=[[0,0.5],[1,0.5]];portConstraint=eastwest;rounded=0;shadow=0;html=0;" vertex="1" parent="zkfFHV4jXpPFQw0GAbJ--0">
          <mxGeometry y="104" width="160" height="26" as="geometry" />
        </mxCell>
        <mxCell id="jVMNcpTjmxNYDDyI9EW5-0" value="Descripcion " style="text;align=left;verticalAlign=top;spacingLeft=4;spacingRight=4;overflow=hidden;rotatable=0;points=[[0,0.5],[1,0.5]];portConstraint=eastwest;rounded=0;shadow=0;html=0;" vertex="1" parent="zkfFHV4jXpPFQw0GAbJ--0">
          <mxGeometry y="130" width="160" height="26" as="geometry" />
        </mxCell>
        <mxCell id="zkfFHV4jXpPFQw0GAbJ--4" value="" style="line;html=1;strokeWidth=1;align=left;verticalAlign=middle;spacingTop=-1;spacingLeft=3;spacingRight=3;rotatable=0;labelPosition=right;points=[];portConstraint=eastwest;" parent="zkfFHV4jXpPFQw0GAbJ--0" vertex="1">
          <mxGeometry y="156" width="160" height="8" as="geometry" />
        </mxCell>
        <mxCell id="zkfFHV4jXpPFQw0GAbJ--5" value="Precio" style="text;align=left;verticalAlign=top;spacingLeft=4;spacingRight=4;overflow=hidden;rotatable=0;points=[[0,0.5],[1,0.5]];portConstraint=eastwest;" parent="zkfFHV4jXpPFQw0GAbJ--0" vertex="1">
          <mxGeometry y="164" width="160" height="26" as="geometry" />
        </mxCell>
        <mxCell id="zkfFHV4jXpPFQw0GAbJ--6" value="Detalles_ventas" style="swimlane;fontStyle=0;align=center;verticalAlign=top;childLayout=stackLayout;horizontal=1;startSize=26;horizontalStack=0;resizeParent=1;resizeLast=0;collapsible=1;marginBottom=0;rounded=0;shadow=0;strokeWidth=1;" parent="WIyWlLk6GJQsqaUBKTNV-1" vertex="1">
          <mxGeometry x="120" y="360" width="160" height="138" as="geometry">
            <mxRectangle x="130" y="380" width="160" height="26" as="alternateBounds" />
          </mxGeometry>
        </mxCell>
        <mxCell id="zkfFHV4jXpPFQw0GAbJ--7" value="Student Number" style="text;align=left;verticalAlign=top;spacingLeft=4;spacingRight=4;overflow=hidden;rotatable=0;points=[[0,0.5],[1,0.5]];portConstraint=eastwest;" parent="zkfFHV4jXpPFQw0GAbJ--6" vertex="1">
          <mxGeometry y="26" width="160" height="26" as="geometry" />
        </mxCell>
        <mxCell id="zkfFHV4jXpPFQw0GAbJ--8" value="Average Mark" style="text;align=left;verticalAlign=top;spacingLeft=4;spacingRight=4;overflow=hidden;rotatable=0;points=[[0,0.5],[1,0.5]];portConstraint=eastwest;rounded=0;shadow=0;html=0;" parent="zkfFHV4jXpPFQw0GAbJ--6" vertex="1">
          <mxGeometry y="52" width="160" height="26" as="geometry" />
        </mxCell>
        <mxCell id="zkfFHV4jXpPFQw0GAbJ--9" value="" style="line;html=1;strokeWidth=1;align=left;verticalAlign=middle;spacingTop=-1;spacingLeft=3;spacingRight=3;rotatable=0;labelPosition=right;points=[];portConstraint=eastwest;" parent="zkfFHV4jXpPFQw0GAbJ--6" vertex="1">
          <mxGeometry y="78" width="160" height="8" as="geometry" />
        </mxCell>
        <mxCell id="zkfFHV4jXpPFQw0GAbJ--10" value="Is Eligible To Enroll" style="text;align=left;verticalAlign=top;spacingLeft=4;spacingRight=4;overflow=hidden;rotatable=0;points=[[0,0.5],[1,0.5]];portConstraint=eastwest;fontStyle=4" parent="zkfFHV4jXpPFQw0GAbJ--6" vertex="1">
          <mxGeometry y="86" width="160" height="26" as="geometry" />
        </mxCell>
        <mxCell id="zkfFHV4jXpPFQw0GAbJ--11" value="Get Seminars Taken" style="text;align=left;verticalAlign=top;spacingLeft=4;spacingRight=4;overflow=hidden;rotatable=0;points=[[0,0.5],[1,0.5]];portConstraint=eastwest;" parent="zkfFHV4jXpPFQw0GAbJ--6" vertex="1">
          <mxGeometry y="112" width="160" height="26" as="geometry" />
        </mxCell>
        <mxCell id="zkfFHV4jXpPFQw0GAbJ--12" value="" style="endArrow=block;endSize=10;endFill=0;shadow=0;strokeWidth=1;rounded=0;curved=0;edgeStyle=elbowEdgeStyle;elbow=vertical;" parent="WIyWlLk6GJQsqaUBKTNV-1" source="zkfFHV4jXpPFQw0GAbJ--6" target="zkfFHV4jXpPFQw0GAbJ--0" edge="1">
          <mxGeometry width="160" relative="1" as="geometry">
            <mxPoint x="200" y="203" as="sourcePoint" />
            <mxPoint x="200" y="203" as="targetPoint" />
          </mxGeometry>
        </mxCell>
        <mxCell id="zkfFHV4jXpPFQw0GAbJ--13" value="Professor" style="swimlane;fontStyle=0;align=center;verticalAlign=top;childLayout=stackLayout;horizontal=1;startSize=26;horizontalStack=0;resizeParent=1;resizeLast=0;collapsible=1;marginBottom=0;rounded=0;shadow=0;strokeWidth=1;" parent="WIyWlLk6GJQsqaUBKTNV-1" vertex="1">
          <mxGeometry x="330" y="360" width="160" height="70" as="geometry">
            <mxRectangle x="340" y="380" width="170" height="26" as="alternateBounds" />
          </mxGeometry>
        </mxCell>
        <mxCell id="zkfFHV4jXpPFQw0GAbJ--14" value="Salary" style="text;align=left;verticalAlign=top;spacingLeft=4;spacingRight=4;overflow=hidden;rotatable=0;points=[[0,0.5],[1,0.5]];portConstraint=eastwest;" parent="zkfFHV4jXpPFQw0GAbJ--13" vertex="1">
          <mxGeometry y="26" width="160" height="26" as="geometry" />
        </mxCell>
        <mxCell id="zkfFHV4jXpPFQw0GAbJ--15" value="" style="line;html=1;strokeWidth=1;align=left;verticalAlign=middle;spacingTop=-1;spacingLeft=3;spacingRight=3;rotatable=0;labelPosition=right;points=[];portConstraint=eastwest;" parent="zkfFHV4jXpPFQw0GAbJ--13" vertex="1">
          <mxGeometry y="52" width="160" height="8" as="geometry" />
        </mxCell>
        <mxCell id="zkfFHV4jXpPFQw0GAbJ--16" value="" style="endArrow=block;endSize=10;endFill=0;shadow=0;strokeWidth=1;rounded=0;curved=0;edgeStyle=elbowEdgeStyle;elbow=vertical;" parent="WIyWlLk6GJQsqaUBKTNV-1" source="zkfFHV4jXpPFQw0GAbJ--13" target="zkfFHV4jXpPFQw0GAbJ--0" edge="1">
          <mxGeometry width="160" relative="1" as="geometry">
            <mxPoint x="210" y="373" as="sourcePoint" />
            <mxPoint x="310" y="271" as="targetPoint" />
          </mxGeometry>
        </mxCell>
        <mxCell id="zkfFHV4jXpPFQw0GAbJ--17" value="Address" style="swimlane;fontStyle=0;align=center;verticalAlign=top;childLayout=stackLayout;horizontal=1;startSize=26;horizontalStack=0;resizeParent=1;resizeLast=0;collapsible=1;marginBottom=0;rounded=0;shadow=0;strokeWidth=1;" parent="WIyWlLk6GJQsqaUBKTNV-1" vertex="1">
          <mxGeometry x="508" y="120" width="160" height="216" as="geometry">
            <mxRectangle x="550" y="140" width="160" height="26" as="alternateBounds" />
          </mxGeometry>
        </mxCell>
        <mxCell id="zkfFHV4jXpPFQw0GAbJ--18" value="Street" style="text;align=left;verticalAlign=top;spacingLeft=4;spacingRight=4;overflow=hidden;rotatable=0;points=[[0,0.5],[1,0.5]];portConstraint=eastwest;" parent="zkfFHV4jXpPFQw0GAbJ--17" vertex="1">
          <mxGeometry y="26" width="160" height="26" as="geometry" />
        </mxCell>
        <mxCell id="zkfFHV4jXpPFQw0GAbJ--19" value="City" style="text;align=left;verticalAlign=top;spacingLeft=4;spacingRight=4;overflow=hidden;rotatable=0;points=[[0,0.5],[1,0.5]];portConstraint=eastwest;rounded=0;shadow=0;html=0;" parent="zkfFHV4jXpPFQw0GAbJ--17" vertex="1">
          <mxGeometry y="52" width="160" height="26" as="geometry" />
        </mxCell>
        <mxCell id="zkfFHV4jXpPFQw0GAbJ--20" value="State" style="text;align=left;verticalAlign=top;spacingLeft=4;spacingRight=4;overflow=hidden;rotatable=0;points=[[0,0.5],[1,0.5]];portConstraint=eastwest;rounded=0;shadow=0;html=0;" parent="zkfFHV4jXpPFQw0GAbJ--17" vertex="1">
          <mxGeometry y="78" width="160" height="26" as="geometry" />
        </mxCell>
        <mxCell id="zkfFHV4jXpPFQw0GAbJ--21" value="Postal Code" style="text;align=left;verticalAlign=top;spacingLeft=4;spacingRight=4;overflow=hidden;rotatable=0;points=[[0,0.5],[1,0.5]];portConstraint=eastwest;rounded=0;shadow=0;html=0;" parent="zkfFHV4jXpPFQw0GAbJ--17" vertex="1">
          <mxGeometry y="104" width="160" height="26" as="geometry" />
        </mxCell>
        <mxCell id="zkfFHV4jXpPFQw0GAbJ--22" value="Country" style="text;align=left;verticalAlign=top;spacingLeft=4;spacingRight=4;overflow=hidden;rotatable=0;points=[[0,0.5],[1,0.5]];portConstraint=eastwest;rounded=0;shadow=0;html=0;" parent="zkfFHV4jXpPFQw0GAbJ--17" vertex="1">
          <mxGeometry y="130" width="160" height="26" as="geometry" />
        </mxCell>
        <mxCell id="zkfFHV4jXpPFQw0GAbJ--23" value="" style="line;html=1;strokeWidth=1;align=left;verticalAlign=middle;spacingTop=-1;spacingLeft=3;spacingRight=3;rotatable=0;labelPosition=right;points=[];portConstraint=eastwest;" parent="zkfFHV4jXpPFQw0GAbJ--17" vertex="1">
          <mxGeometry y="156" width="160" height="8" as="geometry" />
        </mxCell>
        <mxCell id="zkfFHV4jXpPFQw0GAbJ--24" value="Validate" style="text;align=left;verticalAlign=top;spacingLeft=4;spacingRight=4;overflow=hidden;rotatable=0;points=[[0,0.5],[1,0.5]];portConstraint=eastwest;" parent="zkfFHV4jXpPFQw0GAbJ--17" vertex="1">
          <mxGeometry y="164" width="160" height="26" as="geometry" />
        </mxCell>
        <mxCell id="zkfFHV4jXpPFQw0GAbJ--25" value="Output As Label" style="text;align=left;verticalAlign=top;spacingLeft=4;spacingRight=4;overflow=hidden;rotatable=0;points=[[0,0.5],[1,0.5]];portConstraint=eastwest;" parent="zkfFHV4jXpPFQw0GAbJ--17" vertex="1">
          <mxGeometry y="190" width="160" height="26" as="geometry" />
        </mxCell>
        <mxCell id="zkfFHV4jXpPFQw0GAbJ--26" value="" style="endArrow=open;shadow=0;strokeWidth=1;rounded=0;curved=0;endFill=1;edgeStyle=elbowEdgeStyle;elbow=vertical;" parent="WIyWlLk6GJQsqaUBKTNV-1" source="zkfFHV4jXpPFQw0GAbJ--0" target="zkfFHV4jXpPFQw0GAbJ--17" edge="1">
          <mxGeometry x="0.5" y="41" relative="1" as="geometry">
            <mxPoint x="380" y="192" as="sourcePoint" />
            <mxPoint x="540" y="192" as="targetPoint" />
            <mxPoint x="-40" y="32" as="offset" />
          </mxGeometry>
        </mxCell>
        <mxCell id="zkfFHV4jXpPFQw0GAbJ--27" value="0..1" style="resizable=0;align=left;verticalAlign=bottom;labelBackgroundColor=none;fontSize=12;" parent="zkfFHV4jXpPFQw0GAbJ--26" connectable="0" vertex="1">
          <mxGeometry x="-1" relative="1" as="geometry">
            <mxPoint y="4" as="offset" />
          </mxGeometry>
        </mxCell>
        <mxCell id="zkfFHV4jXpPFQw0GAbJ--28" value="1" style="resizable=0;align=right;verticalAlign=bottom;labelBackgroundColor=none;fontSize=12;" parent="zkfFHV4jXpPFQw0GAbJ--26" connectable="0" vertex="1">
          <mxGeometry x="1" relative="1" as="geometry">
            <mxPoint x="-7" y="4" as="offset" />
          </mxGeometry>
        </mxCell>
        <mxCell id="zkfFHV4jXpPFQw0GAbJ--29" value="lives at" style="text;html=1;resizable=0;points=[];;align=center;verticalAlign=middle;labelBackgroundColor=none;rounded=0;shadow=0;strokeWidth=1;fontSize=12;" parent="zkfFHV4jXpPFQw0GAbJ--26" vertex="1" connectable="0">
          <mxGeometry x="0.5" y="49" relative="1" as="geometry">
            <mxPoint x="-38" y="40" as="offset" />
          </mxGeometry>
        </mxCell>
      </root>
    </mxGraphModel>
  </diagram>
  <diagram id="OCLqqegH3mlAJ1RBl8a9" name="Página-2">
    <mxGraphModel dx="1042" dy="2213" grid="1" gridSize="10" guides="1" tooltips="1" connect="1" arrows="1" fold="1" page="1" pageScale="1" pageWidth="827" pageHeight="1169" math="0" shadow="0">
      <root>
        <mxCell id="0" />
        <mxCell id="1" parent="0" />
        <mxCell id="sJF3YPYKDgFNLDfuukDZ-1" style="rounded=0;orthogonalLoop=1;jettySize=auto;elbow=vertical;html=1;entryX=1;entryY=0.5;entryDx=0;entryDy=0;fontFamily=Helvetica;fontSize=12;fontColor=default;fontStyle=0;edgeStyle=orthogonalEdgeStyle;startArrow=ERmandOne;startFill=0;endArrow=ERmandOne;endFill=0;labelBackgroundColor=none;strokeColor=#182E3E;exitX=1;exitY=0.5;exitDx=0;exitDy=0;swimlaneLine=0;" edge="1" parent="1">
          <mxGeometry relative="1" as="geometry">
            <mxPoint x="700" y="625" as="sourcePoint" />
            <Array as="points">
              <mxPoint x="740" y="625" />
              <mxPoint x="740" y="172" />
            </Array>
            <mxPoint x="700" y="172" as="targetPoint" />
          </mxGeometry>
        </mxCell>
        <mxCell id="sJF3YPYKDgFNLDfuukDZ-2" style="edgeStyle=orthogonalEdgeStyle;rounded=0;orthogonalLoop=1;jettySize=auto;html=1;exitX=1;exitY=0.5;exitDx=0;exitDy=0;entryX=0;entryY=0.5;entryDx=0;entryDy=0;labelBackgroundColor=none;strokeColor=#182E3E;fontColor=default;startArrow=ERmany;startFill=0;endArrow=ERmany;endFill=0;swimlaneLine=0;" edge="1" parent="1">
          <mxGeometry relative="1" as="geometry">
            <mxPoint x="700" y="142" as="sourcePoint" />
            <mxPoint x="779" y="260" as="targetPoint" />
            <Array as="points">
              <mxPoint x="756" y="142" />
              <mxPoint x="756" y="350" />
            </Array>
          </mxGeometry>
        </mxCell>
        <mxCell id="sJF3YPYKDgFNLDfuukDZ-3" style="edgeStyle=orthogonalEdgeStyle;rounded=0;orthogonalLoop=1;jettySize=auto;html=1;labelBackgroundColor=none;strokeColor=#182E3E;fontColor=default;startArrow=ERmandOne;startFill=0;endArrow=ERmany;endFill=0;swimlaneLine=0;entryX=1;entryY=0.5;entryDx=0;entryDy=0;exitX=1;exitY=0.5;exitDx=0;exitDy=0;" edge="1" parent="1" target="sJF3YPYKDgFNLDfuukDZ-35">
          <mxGeometry relative="1" as="geometry">
            <mxPoint x="983" y="260" as="sourcePoint" />
            <mxPoint x="1252" y="182" as="targetPoint" />
            <Array as="points">
              <mxPoint x="1050" y="380" />
              <mxPoint x="1050" y="1298" />
            </Array>
          </mxGeometry>
        </mxCell>
        <mxCell id="sJF3YPYKDgFNLDfuukDZ-4" style="edgeStyle=orthogonalEdgeStyle;rounded=0;orthogonalLoop=1;jettySize=auto;html=1;endArrow=ERmandOne;endFill=0;startArrow=ERmany;startFill=0;labelBackgroundColor=none;strokeColor=#182E3E;fontColor=default;swimlaneLine=0;entryX=1;entryY=0.5;entryDx=0;entryDy=0;exitX=1;exitY=0.5;exitDx=0;exitDy=0;" edge="1" parent="1" source="sJF3YPYKDgFNLDfuukDZ-20" target="sJF3YPYKDgFNLDfuukDZ-47">
          <mxGeometry relative="1" as="geometry">
            <mxPoint x="1034" y="189" as="sourcePoint" />
            <mxPoint x="765" y="36" as="targetPoint" />
            <Array as="points">
              <mxPoint x="1039" y="170" />
              <mxPoint x="1039" y="-229" />
              <mxPoint x="660" y="-229" />
              <mxPoint x="660" y="51" />
            </Array>
          </mxGeometry>
        </mxCell>
        <mxCell id="sJF3YPYKDgFNLDfuukDZ-5" style="rounded=0;orthogonalLoop=1;jettySize=auto;elbow=vertical;html=1;fontFamily=Helvetica;fontSize=12;fontColor=default;fontStyle=0;edgeStyle=orthogonalEdgeStyle;startArrow=ERmandOne;startFill=0;endArrow=ERmandOne;endFill=0;labelBackgroundColor=none;strokeColor=#182E3E;exitX=1;exitY=0.5;exitDx=0;exitDy=0;swimlaneLine=0;entryX=1;entryY=0.5;entryDx=0;entryDy=0;" edge="1" parent="1">
          <mxGeometry relative="1" as="geometry">
            <mxPoint x="704" y="1278" as="sourcePoint" />
            <Array as="points">
              <mxPoint x="738" y="1278" />
              <mxPoint x="738" y="1013" />
            </Array>
            <mxPoint x="696" y="1013" as="targetPoint" />
          </mxGeometry>
        </mxCell>
        <mxCell id="sJF3YPYKDgFNLDfuukDZ-6" style="rounded=0;orthogonalLoop=1;jettySize=auto;elbow=vertical;html=1;fontFamily=Helvetica;fontSize=12;fontColor=default;fontStyle=0;edgeStyle=orthogonalEdgeStyle;startArrow=ERmandOne;startFill=0;endArrow=ERmandOne;endFill=0;labelBackgroundColor=none;strokeColor=#182E3E;exitX=1;exitY=0.5;exitDx=0;exitDy=0;swimlaneLine=0;entryX=0;entryY=0.5;entryDx=0;entryDy=0;" edge="1" parent="1" target="sJF3YPYKDgFNLDfuukDZ-70">
          <mxGeometry relative="1" as="geometry">
            <mxPoint x="696" y="983" as="sourcePoint" />
            <Array as="points">
              <mxPoint x="757" y="983" />
              <mxPoint x="757" y="983" />
            </Array>
            <mxPoint x="754" y="1015" as="targetPoint" />
          </mxGeometry>
        </mxCell>
        <mxCell id="sJF3YPYKDgFNLDfuukDZ-7" style="rounded=0;orthogonalLoop=1;jettySize=auto;elbow=vertical;html=1;entryX=1;entryY=0.5;entryDx=0;entryDy=0;fontFamily=Helvetica;fontSize=12;fontColor=default;fontStyle=0;edgeStyle=orthogonalEdgeStyle;startArrow=ERmandOne;startFill=0;endArrow=ERmandOne;endFill=0;labelBackgroundColor=none;strokeColor=#182E3E;exitX=1;exitY=0.5;exitDx=0;exitDy=0;swimlaneLine=0;" edge="1" parent="1">
          <mxGeometry relative="1" as="geometry">
            <mxPoint x="700" y="715" as="sourcePoint" />
            <Array as="points">
              <mxPoint x="737" y="715" />
              <mxPoint x="737" y="953" />
            </Array>
            <mxPoint x="696" y="953" as="targetPoint" />
          </mxGeometry>
        </mxCell>
        <mxCell id="sJF3YPYKDgFNLDfuukDZ-8" value="&lt;font color=&quot;#ffffff&quot;&gt;Detalles_compras&lt;/font&gt;" style="swimlane;fontStyle=0;align=center;verticalAlign=middle;childLayout=stackLayout;horizontal=1;startSize=26;horizontalStack=0;resizeParent=1;resizeParentMax=0;resizeLast=0;collapsible=1;marginBottom=0;whiteSpace=wrap;html=1;strokeColor=#909090;fontFamily=Helvetica;fontSize=12;fontColor=#1A1A1A;labelBackgroundColor=none;fillColor=#F5AB50;" vertex="1" parent="1">
          <mxGeometry x="771" y="554" width="193" height="262" as="geometry" />
        </mxCell>
        <mxCell id="sJF3YPYKDgFNLDfuukDZ-9" value="- id&amp;nbsp; &amp;nbsp; &amp;nbsp; &amp;nbsp; &amp;nbsp; &amp;nbsp; &amp;nbsp; &amp;nbsp; &amp;nbsp; &amp;nbsp; &amp;nbsp; &amp;nbsp; &amp;nbsp; &amp;nbsp; &amp;nbsp; &amp;nbsp; &amp;nbsp; &amp;nbsp; &amp;nbsp; &amp;nbsp; int" style="text;strokeColor=none;fillColor=none;align=left;verticalAlign=middle;spacingLeft=4;spacingRight=4;overflow=hidden;points=[[0,0.5],[1,0.5]];portConstraint=eastwest;rotatable=0;whiteSpace=wrap;html=1;labelBackgroundColor=none;fontColor=#1A1A1A;swimlaneLine=0;" vertex="1" parent="sJF3YPYKDgFNLDfuukDZ-8">
          <mxGeometry y="26" width="193" height="30" as="geometry" />
        </mxCell>
        <object label="- compra_id&amp;nbsp; &amp;nbsp; &amp;nbsp; &amp;nbsp; &amp;nbsp; &amp;nbsp; &amp;nbsp;string" hoa="" id="sJF3YPYKDgFNLDfuukDZ-10">
          <mxCell style="text;strokeColor=none;fillColor=none;align=left;verticalAlign=middle;spacingLeft=4;spacingRight=4;overflow=hidden;points=[[0,0.5],[1,0.5]];portConstraint=eastwest;rotatable=0;whiteSpace=wrap;html=1;labelBackgroundColor=none;fontColor=#1A1A1A;swimlaneLine=0;" vertex="1" parent="sJF3YPYKDgFNLDfuukDZ-8">
            <mxGeometry y="56" width="193" height="30" as="geometry" />
          </mxCell>
        </object>
        <mxCell id="sJF3YPYKDgFNLDfuukDZ-109" value="- producto_id&amp;nbsp; &amp;nbsp; &amp;nbsp; &amp;nbsp; &amp;nbsp; &amp;nbsp; &amp;nbsp; &amp;nbsp; &amp;nbsp; &amp;nbsp; &amp;nbsp; &amp;nbsp; string" style="text;strokeColor=none;fillColor=none;align=left;verticalAlign=middle;spacingLeft=4;spacingRight=4;overflow=hidden;points=[[0,0.5],[1,0.5]];portConstraint=eastwest;rotatable=0;whiteSpace=wrap;html=1;labelBackgroundColor=none;fontColor=#1A1A1A;swimlaneLine=0;" vertex="1" parent="sJF3YPYKDgFNLDfuukDZ-8">
          <mxGeometry y="86" width="193" height="30" as="geometry" />
        </mxCell>
        <mxCell id="sJF3YPYKDgFNLDfuukDZ-11" value="- cantidad&amp;nbsp; &amp;nbsp; &amp;nbsp; &amp;nbsp; &amp;nbsp; &amp;nbsp; &amp;nbsp; &amp;nbsp; &amp;nbsp; &amp;nbsp; &amp;nbsp; &amp;nbsp; string" style="text;strokeColor=none;fillColor=none;align=left;verticalAlign=middle;spacingLeft=4;spacingRight=4;overflow=hidden;points=[[0,0.5],[1,0.5]];portConstraint=eastwest;rotatable=0;whiteSpace=wrap;html=1;labelBackgroundColor=none;fontColor=#1A1A1A;swimlaneLine=0;" vertex="1" parent="sJF3YPYKDgFNLDfuukDZ-8">
          <mxGeometry y="116" width="193" height="30" as="geometry" />
        </mxCell>
        <mxCell id="sJF3YPYKDgFNLDfuukDZ-110" value="- Precio_unitario&amp;nbsp; &amp;nbsp; &amp;nbsp; &amp;nbsp; &amp;nbsp; &amp;nbsp; &amp;nbsp; &amp;nbsp; string" style="text;strokeColor=none;fillColor=none;align=left;verticalAlign=middle;spacingLeft=4;spacingRight=4;overflow=hidden;points=[[0,0.5],[1,0.5]];portConstraint=eastwest;rotatable=0;whiteSpace=wrap;html=1;labelBackgroundColor=none;fontColor=#1A1A1A;swimlaneLine=0;" vertex="1" parent="sJF3YPYKDgFNLDfuukDZ-8">
          <mxGeometry y="146" width="193" height="30" as="geometry" />
        </mxCell>
        <mxCell id="sJF3YPYKDgFNLDfuukDZ-12" value="" style="line;strokeWidth=1;fillColor=#F5AB50;align=center;verticalAlign=middle;spacingTop=-1;spacingLeft=3;spacingRight=3;rotatable=0;labelPosition=right;points=[];portConstraint=eastwest;strokeColor=#909090;fontFamily=Helvetica;fontSize=12;fontColor=#1A1A1A;fontStyle=0;labelBackgroundColor=none;" vertex="1" parent="sJF3YPYKDgFNLDfuukDZ-8">
          <mxGeometry y="176" width="193" height="8" as="geometry" />
        </mxCell>
        <mxCell id="sJF3YPYKDgFNLDfuukDZ-13" value="+ asignarEspaciosSeguros()" style="text;strokeColor=none;fillColor=none;align=left;verticalAlign=top;spacingLeft=4;spacingRight=4;overflow=hidden;rotatable=0;points=[[0,0.5],[1,0.5]];portConstraint=eastwest;whiteSpace=wrap;html=1;fontFamily=Helvetica;fontSize=12;fontColor=#1A1A1A;fontStyle=0;labelBackgroundColor=none;" vertex="1" parent="sJF3YPYKDgFNLDfuukDZ-8">
          <mxGeometry y="184" width="193" height="26" as="geometry" />
        </mxCell>
        <mxCell id="sJF3YPYKDgFNLDfuukDZ-14" value="+ inscripciones()" style="text;strokeColor=none;fillColor=none;align=left;verticalAlign=top;spacingLeft=4;spacingRight=4;overflow=hidden;rotatable=0;points=[[0,0.5],[1,0.5]];portConstraint=eastwest;whiteSpace=wrap;html=1;fontFamily=Helvetica;fontSize=12;fontColor=#1A1A1A;fontStyle=0;labelBackgroundColor=none;" vertex="1" parent="sJF3YPYKDgFNLDfuukDZ-8">
          <mxGeometry y="210" width="193" height="26" as="geometry" />
        </mxCell>
        <mxCell id="sJF3YPYKDgFNLDfuukDZ-15" value="+ asignarRolesPermisos()" style="text;strokeColor=none;fillColor=none;align=left;verticalAlign=top;spacingLeft=4;spacingRight=4;overflow=hidden;rotatable=0;points=[[0,0.5],[1,0.5]];portConstraint=eastwest;whiteSpace=wrap;html=1;fontFamily=Helvetica;fontSize=12;fontColor=#1A1A1A;fontStyle=0;labelBackgroundColor=none;" vertex="1" parent="sJF3YPYKDgFNLDfuukDZ-8">
          <mxGeometry y="236" width="193" height="26" as="geometry" />
        </mxCell>
        <mxCell id="sJF3YPYKDgFNLDfuukDZ-16" style="rounded=0;orthogonalLoop=1;jettySize=auto;elbow=vertical;html=1;fontFamily=Helvetica;fontSize=12;fontColor=default;fontStyle=0;edgeStyle=orthogonalEdgeStyle;startArrow=ERmandOne;startFill=0;endArrow=ERmandOne;endFill=0;labelBackgroundColor=none;strokeColor=#182E3E;exitX=1;exitY=0.5;exitDx=0;exitDy=0;swimlaneLine=0;entryX=0;entryY=0.5;entryDx=0;entryDy=0;" edge="1" parent="1" target="sJF3YPYKDgFNLDfuukDZ-10">
          <mxGeometry relative="1" as="geometry">
            <mxPoint x="700" y="625" as="sourcePoint" />
            <Array as="points">
              <mxPoint x="752" y="625" />
              <mxPoint x="752" y="625" />
            </Array>
            <mxPoint x="725" y="668" as="targetPoint" />
          </mxGeometry>
        </mxCell>
        <object label="&lt;font color=&quot;#ffffff&quot;&gt;Detalles_Ventas&lt;/font&gt;" id="sJF3YPYKDgFNLDfuukDZ-17">
          <mxCell style="swimlane;fontStyle=0;align=center;verticalAlign=middle;childLayout=stackLayout;horizontal=1;startSize=26;horizontalStack=0;resizeParent=1;resizeParentMax=0;resizeLast=0;collapsible=1;marginBottom=0;whiteSpace=wrap;html=1;strokeColor=#909090;fontFamily=Helvetica;fontSize=12;fontColor=#1A1A1A;labelBackgroundColor=none;fillColor=#F5AB50;" vertex="1" parent="1">
            <mxGeometry x="779" y="69" width="204" height="262" as="geometry" />
          </mxCell>
        </object>
        <object label="- id&amp;nbsp; &amp;nbsp; &amp;nbsp; &amp;nbsp; &amp;nbsp; &amp;nbsp; &amp;nbsp; &amp;nbsp; &amp;nbsp; &amp;nbsp; &amp;nbsp; &amp;nbsp; &amp;nbsp; &amp;nbsp; &amp;nbsp; &amp;nbsp; &amp;nbsp; &amp;nbsp; &amp;nbsp; &amp;nbsp; &amp;nbsp;string" id="sJF3YPYKDgFNLDfuukDZ-18">
          <mxCell style="text;strokeColor=none;fillColor=none;align=left;verticalAlign=middle;spacingLeft=4;spacingRight=4;overflow=hidden;points=[[0,0.5],[1,0.5]];portConstraint=eastwest;rotatable=0;whiteSpace=wrap;html=1;labelBackgroundColor=none;fontColor=#1A1A1A;swimlaneLine=0;" vertex="1" parent="sJF3YPYKDgFNLDfuukDZ-17">
            <mxGeometry y="26" width="204" height="30" as="geometry" />
          </mxCell>
        </object>
        <object label="- Venta_id&amp;nbsp; &amp;nbsp; &amp;nbsp; &amp;nbsp; &amp;nbsp; &amp;nbsp; &amp;nbsp; &amp;nbsp; &amp;nbsp; &amp;nbsp; &amp;nbsp; &amp;nbsp; &amp;nbsp; &amp;nbsp; &amp;nbsp; &amp;nbsp; string" hoa="" id="sJF3YPYKDgFNLDfuukDZ-19">
          <mxCell style="text;strokeColor=none;fillColor=none;align=left;verticalAlign=middle;spacingLeft=4;spacingRight=4;overflow=hidden;points=[[0,0.5],[1,0.5]];portConstraint=eastwest;rotatable=0;whiteSpace=wrap;html=1;labelBackgroundColor=none;fontColor=#1A1A1A;swimlaneLine=0;" vertex="1" parent="sJF3YPYKDgFNLDfuukDZ-17">
            <mxGeometry y="56" width="204" height="30" as="geometry" />
          </mxCell>
        </object>
        <mxCell id="sJF3YPYKDgFNLDfuukDZ-20" value="- Producto_id&amp;nbsp; &amp;nbsp; &amp;nbsp; &amp;nbsp; &amp;nbsp; &amp;nbsp; &amp;nbsp; &amp;nbsp; &amp;nbsp; &amp;nbsp; &amp;nbsp; &amp;nbsp; &amp;nbsp; string" style="text;strokeColor=none;fillColor=none;align=left;verticalAlign=middle;spacingLeft=4;spacingRight=4;overflow=hidden;points=[[0,0.5],[1,0.5]];portConstraint=eastwest;rotatable=0;whiteSpace=wrap;html=1;labelBackgroundColor=none;fontColor=#1A1A1A;swimlaneLine=0;" vertex="1" parent="sJF3YPYKDgFNLDfuukDZ-17">
          <mxGeometry y="86" width="204" height="30" as="geometry" />
        </mxCell>
        <mxCell id="sJF3YPYKDgFNLDfuukDZ-21" value="- Cantidad&amp;nbsp; &amp;nbsp; &amp;nbsp; &amp;nbsp; &amp;nbsp; &amp;nbsp; &amp;nbsp; &amp;nbsp; &amp;nbsp; &amp;nbsp; &amp;nbsp; &amp;nbsp; &amp;nbsp;string" style="text;strokeColor=none;fillColor=none;align=left;verticalAlign=middle;spacingLeft=4;spacingRight=4;overflow=hidden;points=[[0,0.5],[1,0.5]];portConstraint=eastwest;rotatable=0;whiteSpace=wrap;html=1;labelBackgroundColor=none;fontColor=#1A1A1A;swimlaneLine=0;" vertex="1" parent="sJF3YPYKDgFNLDfuukDZ-17">
          <mxGeometry y="116" width="204" height="30" as="geometry" />
        </mxCell>
        <mxCell id="sJF3YPYKDgFNLDfuukDZ-22" value="- Precio_unitario&amp;nbsp; &amp;nbsp; &amp;nbsp; &amp;nbsp; &amp;nbsp; &amp;nbsp; &amp;nbsp; &amp;nbsp; &amp;nbsp; &amp;nbsp; &amp;nbsp; string" style="text;strokeColor=none;fillColor=none;align=left;verticalAlign=middle;spacingLeft=4;spacingRight=4;overflow=hidden;points=[[0,0.5],[1,0.5]];portConstraint=eastwest;rotatable=0;whiteSpace=wrap;html=1;labelBackgroundColor=none;fontColor=#1A1A1A;swimlaneLine=0;" vertex="1" parent="sJF3YPYKDgFNLDfuukDZ-17">
          <mxGeometry y="146" width="204" height="30" as="geometry" />
        </mxCell>
        <mxCell id="sJF3YPYKDgFNLDfuukDZ-30" value="" style="line;strokeWidth=1;fillColor=#F5AB50;align=center;verticalAlign=middle;spacingTop=-1;spacingLeft=3;spacingRight=3;rotatable=0;labelPosition=right;points=[];portConstraint=eastwest;strokeColor=#909090;fontFamily=Helvetica;fontSize=12;fontColor=#1A1A1A;fontStyle=0;labelBackgroundColor=none;" vertex="1" parent="sJF3YPYKDgFNLDfuukDZ-17">
          <mxGeometry y="176" width="204" height="8" as="geometry" />
        </mxCell>
        <mxCell id="sJF3YPYKDgFNLDfuukDZ-31" value="+ crearPlanificación()" style="text;strokeColor=none;fillColor=none;align=left;verticalAlign=top;spacingLeft=4;spacingRight=4;overflow=hidden;rotatable=0;points=[[0,0.5],[1,0.5]];portConstraint=eastwest;whiteSpace=wrap;html=1;fontFamily=Helvetica;fontSize=12;fontColor=#1A1A1A;fontStyle=0;labelBackgroundColor=none;" vertex="1" parent="sJF3YPYKDgFNLDfuukDZ-17">
          <mxGeometry y="184" width="204" height="26" as="geometry" />
        </mxCell>
        <mxCell id="sJF3YPYKDgFNLDfuukDZ-32" value="+ editarPlanificación()" style="text;strokeColor=none;fillColor=none;align=left;verticalAlign=top;spacingLeft=4;spacingRight=4;overflow=hidden;rotatable=0;points=[[0,0.5],[1,0.5]];portConstraint=eastwest;whiteSpace=wrap;html=1;fontFamily=Helvetica;fontSize=12;fontColor=#1A1A1A;fontStyle=0;labelBackgroundColor=none;" vertex="1" parent="sJF3YPYKDgFNLDfuukDZ-17">
          <mxGeometry y="210" width="204" height="26" as="geometry" />
        </mxCell>
        <mxCell id="sJF3YPYKDgFNLDfuukDZ-33" value="+ eliminarActividades()" style="text;strokeColor=none;fillColor=none;align=left;verticalAlign=top;spacingLeft=4;spacingRight=4;overflow=hidden;rotatable=0;points=[[0,0.5],[1,0.5]];portConstraint=eastwest;whiteSpace=wrap;html=1;fontFamily=Helvetica;fontSize=12;fontColor=#1A1A1A;fontStyle=0;labelBackgroundColor=none;" vertex="1" parent="sJF3YPYKDgFNLDfuukDZ-17">
          <mxGeometry y="236" width="204" height="26" as="geometry" />
        </mxCell>
        <mxCell id="sJF3YPYKDgFNLDfuukDZ-34" value="&lt;font color=&quot;#ffffff&quot;&gt;Empleados&lt;/font&gt;" style="swimlane;fontStyle=0;align=center;verticalAlign=middle;childLayout=stackLayout;horizontal=1;startSize=26;horizontalStack=0;resizeParent=1;resizeParentMax=0;resizeLast=0;collapsible=1;marginBottom=0;whiteSpace=wrap;html=1;strokeColor=#909090;fontFamily=Helvetica;fontSize=12;fontColor=#1A1A1A;labelBackgroundColor=none;fillColor=#F5AB50;" vertex="1" parent="1">
          <mxGeometry x="770.5" y="1257" width="220" height="202" as="geometry" />
        </mxCell>
        <mxCell id="sJF3YPYKDgFNLDfuukDZ-35" value="- id&amp;nbsp; &amp;nbsp; &amp;nbsp; &amp;nbsp; &amp;nbsp; &amp;nbsp; &amp;nbsp; &amp;nbsp; &amp;nbsp; &amp;nbsp; &amp;nbsp; &amp;nbsp; &amp;nbsp; &amp;nbsp; &amp;nbsp; &amp;nbsp; &amp;nbsp; &amp;nbsp; &amp;nbsp; &amp;nbsp; &amp;nbsp; &amp;nbsp; &amp;nbsp; &amp;nbsp;int" style="text;strokeColor=none;fillColor=none;align=left;verticalAlign=middle;spacingLeft=4;spacingRight=4;overflow=hidden;points=[[0,0.5],[1,0.5]];portConstraint=eastwest;rotatable=0;whiteSpace=wrap;html=1;labelBackgroundColor=none;fontColor=#1A1A1A;swimlaneLine=0;" vertex="1" parent="sJF3YPYKDgFNLDfuukDZ-34">
          <mxGeometry y="26" width="220" height="30" as="geometry" />
        </mxCell>
        <object label="- Nombre&amp;nbsp; &amp;nbsp; &amp;nbsp; &amp;nbsp; &amp;nbsp; &amp;nbsp; &amp;nbsp; &amp;nbsp; &amp;nbsp; &amp;nbsp; &amp;nbsp; &amp;nbsp; &amp;nbsp; &amp;nbsp; &amp;nbsp; &amp;nbsp; &amp;nbsp; string" hoa="" id="sJF3YPYKDgFNLDfuukDZ-36">
          <mxCell style="text;strokeColor=none;fillColor=none;align=left;verticalAlign=middle;spacingLeft=4;spacingRight=4;overflow=hidden;points=[[0,0.5],[1,0.5]];portConstraint=eastwest;rotatable=0;whiteSpace=wrap;html=1;labelBackgroundColor=none;fontColor=#1A1A1A;swimlaneLine=0;" vertex="1" parent="sJF3YPYKDgFNLDfuukDZ-34">
            <mxGeometry y="56" width="220" height="30" as="geometry" />
          </mxCell>
        </object>
        <mxCell id="sJF3YPYKDgFNLDfuukDZ-37" value="- correo&amp;nbsp; &amp;nbsp; &amp;nbsp; &amp;nbsp; &amp;nbsp; &amp;nbsp; &amp;nbsp; &amp;nbsp; &amp;nbsp; &amp;nbsp; &amp;nbsp; &amp;nbsp; &amp;nbsp; &amp;nbsp; &amp;nbsp; &amp;nbsp; &amp;nbsp; string" style="text;strokeColor=none;fillColor=none;align=left;verticalAlign=middle;spacingLeft=4;spacingRight=4;overflow=hidden;points=[[0,0.5],[1,0.5]];portConstraint=eastwest;rotatable=0;whiteSpace=wrap;html=1;labelBackgroundColor=none;fontColor=#1A1A1A;swimlaneLine=0;" vertex="1" parent="sJF3YPYKDgFNLDfuukDZ-34">
          <mxGeometry y="86" width="220" height="30" as="geometry" />
        </mxCell>
        <mxCell id="sJF3YPYKDgFNLDfuukDZ-41" value="" style="line;strokeWidth=1;fillColor=#F5AB50;align=center;verticalAlign=middle;spacingTop=-1;spacingLeft=3;spacingRight=3;rotatable=0;labelPosition=right;points=[];portConstraint=eastwest;strokeColor=#909090;fontFamily=Helvetica;fontSize=12;fontColor=#1A1A1A;fontStyle=0;labelBackgroundColor=none;" vertex="1" parent="sJF3YPYKDgFNLDfuukDZ-34">
          <mxGeometry y="116" width="220" height="8" as="geometry" />
        </mxCell>
        <mxCell id="sJF3YPYKDgFNLDfuukDZ-42" value="+ ingresarMaterial()" style="text;strokeColor=none;fillColor=none;align=left;verticalAlign=top;spacingLeft=4;spacingRight=4;overflow=hidden;rotatable=0;points=[[0,0.5],[1,0.5]];portConstraint=eastwest;whiteSpace=wrap;html=1;fontFamily=Helvetica;fontSize=12;fontColor=#1A1A1A;fontStyle=0;labelBackgroundColor=none;" vertex="1" parent="sJF3YPYKDgFNLDfuukDZ-34">
          <mxGeometry y="124" width="220" height="26" as="geometry" />
        </mxCell>
        <mxCell id="sJF3YPYKDgFNLDfuukDZ-43" value="+ editarMaterial()" style="text;strokeColor=none;fillColor=none;align=left;verticalAlign=top;spacingLeft=4;spacingRight=4;overflow=hidden;rotatable=0;points=[[0,0.5],[1,0.5]];portConstraint=eastwest;whiteSpace=wrap;html=1;fontFamily=Helvetica;fontSize=12;fontColor=#1A1A1A;fontStyle=0;labelBackgroundColor=none;" vertex="1" parent="sJF3YPYKDgFNLDfuukDZ-34">
          <mxGeometry y="150" width="220" height="26" as="geometry" />
        </mxCell>
        <mxCell id="sJF3YPYKDgFNLDfuukDZ-44" value="+ eliminarMaterial()" style="text;strokeColor=none;fillColor=none;align=left;verticalAlign=top;spacingLeft=4;spacingRight=4;overflow=hidden;rotatable=0;points=[[0,0.5],[1,0.5]];portConstraint=eastwest;whiteSpace=wrap;html=1;fontFamily=Helvetica;fontSize=12;fontColor=#1A1A1A;fontStyle=0;labelBackgroundColor=none;" vertex="1" parent="sJF3YPYKDgFNLDfuukDZ-34">
          <mxGeometry y="176" width="220" height="26" as="geometry" />
        </mxCell>
        <object label="&lt;font color=&quot;#ffffff&quot;&gt;Compras&lt;/font&gt;" id="sJF3YPYKDgFNLDfuukDZ-45">
          <mxCell style="swimlane;fontStyle=0;align=center;verticalAlign=middle;childLayout=stackLayout;horizontal=1;startSize=26;horizontalStack=0;resizeParent=1;resizeParentMax=0;resizeLast=0;collapsible=1;marginBottom=0;whiteSpace=wrap;html=1;strokeColor=#909090;fontFamily=Helvetica;fontSize=12;fontColor=#1A1A1A;labelBackgroundColor=none;fillColor=#F5AB50;" vertex="1" parent="1">
            <mxGeometry x="350" y="-20" width="203" height="202" as="geometry" />
          </mxCell>
        </object>
        <object label="- id&amp;nbsp; &amp;nbsp; &amp;nbsp; &amp;nbsp; &amp;nbsp; &amp;nbsp; &amp;nbsp; &amp;nbsp; &amp;nbsp; &amp;nbsp; &amp;nbsp; &amp;nbsp; &amp;nbsp; &amp;nbsp; &amp;nbsp; &amp;nbsp; &amp;nbsp; &amp;nbsp; &amp;nbsp; &amp;nbsp; &amp;nbsp;int" id="sJF3YPYKDgFNLDfuukDZ-46">
          <mxCell style="text;strokeColor=none;fillColor=none;align=left;verticalAlign=middle;spacingLeft=4;spacingRight=4;overflow=hidden;points=[[0,0.5],[1,0.5]];portConstraint=eastwest;rotatable=0;whiteSpace=wrap;html=1;labelBackgroundColor=none;fontColor=#1A1A1A;swimlaneLine=0;" vertex="1" parent="sJF3YPYKDgFNLDfuukDZ-45">
            <mxGeometry y="26" width="203" height="30" as="geometry" />
          </mxCell>
        </object>
        <object label="- fecha&amp;nbsp; &amp;nbsp; &amp;nbsp; &amp;nbsp; &amp;nbsp; &amp;nbsp; &amp;nbsp; &amp;nbsp; &amp;nbsp; &amp;nbsp; &amp;nbsp; &amp;nbsp; &amp;nbsp; &amp;nbsp; &amp;nbsp; int" hoa="" id="sJF3YPYKDgFNLDfuukDZ-47">
          <mxCell style="text;strokeColor=none;fillColor=none;align=left;verticalAlign=middle;spacingLeft=4;spacingRight=4;overflow=hidden;points=[[0,0.5],[1,0.5]];portConstraint=eastwest;rotatable=0;whiteSpace=wrap;html=1;labelBackgroundColor=none;fontColor=#1A1A1A;swimlaneLine=0;" vertex="1" parent="sJF3YPYKDgFNLDfuukDZ-45">
            <mxGeometry y="56" width="203" height="30" as="geometry" />
          </mxCell>
        </object>
        <mxCell id="sJF3YPYKDgFNLDfuukDZ-48" value="- proveedor_id&amp;nbsp; &amp;nbsp; &amp;nbsp; &amp;nbsp; &amp;nbsp; &amp;nbsp; &amp;nbsp; &amp;nbsp; &amp;nbsp; &amp;nbsp; &amp;nbsp;string" style="text;strokeColor=none;fillColor=none;align=left;verticalAlign=middle;spacingLeft=4;spacingRight=4;overflow=hidden;points=[[0,0.5],[1,0.5]];portConstraint=eastwest;rotatable=0;whiteSpace=wrap;html=1;labelBackgroundColor=none;fontColor=#1A1A1A;swimlaneLine=0;" vertex="1" parent="sJF3YPYKDgFNLDfuukDZ-45">
          <mxGeometry y="86" width="203" height="30" as="geometry" />
        </mxCell>
        <mxCell id="sJF3YPYKDgFNLDfuukDZ-53" value="" style="line;strokeWidth=1;fillColor=#F5AB50;align=center;verticalAlign=middle;spacingTop=-1;spacingLeft=3;spacingRight=3;rotatable=0;labelPosition=right;points=[];portConstraint=eastwest;strokeColor=#909090;fontFamily=Helvetica;fontSize=12;fontColor=#1A1A1A;fontStyle=0;labelBackgroundColor=none;" vertex="1" parent="sJF3YPYKDgFNLDfuukDZ-45">
          <mxGeometry y="116" width="203" height="8" as="geometry" />
        </mxCell>
        <mxCell id="sJF3YPYKDgFNLDfuukDZ-54" value="+ ingresarActividad()" style="text;strokeColor=none;fillColor=none;align=left;verticalAlign=top;spacingLeft=4;spacingRight=4;overflow=hidden;rotatable=0;points=[[0,0.5],[1,0.5]];portConstraint=eastwest;whiteSpace=wrap;html=1;fontFamily=Helvetica;fontSize=12;fontColor=#1A1A1A;fontStyle=0;labelBackgroundColor=none;" vertex="1" parent="sJF3YPYKDgFNLDfuukDZ-45">
          <mxGeometry y="124" width="203" height="26" as="geometry" />
        </mxCell>
        <mxCell id="sJF3YPYKDgFNLDfuukDZ-55" value="+ editarActividad()" style="text;strokeColor=none;fillColor=none;align=left;verticalAlign=top;spacingLeft=4;spacingRight=4;overflow=hidden;rotatable=0;points=[[0,0.5],[1,0.5]];portConstraint=eastwest;whiteSpace=wrap;html=1;fontFamily=Helvetica;fontSize=12;fontColor=#1A1A1A;fontStyle=0;labelBackgroundColor=none;" vertex="1" parent="sJF3YPYKDgFNLDfuukDZ-45">
          <mxGeometry y="150" width="203" height="26" as="geometry" />
        </mxCell>
        <mxCell id="sJF3YPYKDgFNLDfuukDZ-56" value="+ eliminarActividad()" style="text;strokeColor=none;fillColor=none;align=left;verticalAlign=top;spacingLeft=4;spacingRight=4;overflow=hidden;rotatable=0;points=[[0,0.5],[1,0.5]];portConstraint=eastwest;whiteSpace=wrap;html=1;fontFamily=Helvetica;fontSize=12;fontColor=#1A1A1A;fontStyle=0;labelBackgroundColor=none;" vertex="1" parent="sJF3YPYKDgFNLDfuukDZ-45">
          <mxGeometry y="176" width="203" height="26" as="geometry" />
        </mxCell>
        <mxCell id="sJF3YPYKDgFNLDfuukDZ-57" value="&lt;font color=&quot;#ffffff&quot;&gt;Ventas&lt;/font&gt;" style="swimlane;fontStyle=0;align=center;verticalAlign=middle;childLayout=stackLayout;horizontal=1;startSize=26;horizontalStack=0;resizeParent=1;resizeParentMax=0;resizeLast=0;collapsible=1;marginBottom=0;whiteSpace=wrap;html=1;strokeColor=#909090;fontFamily=Helvetica;fontSize=12;fontColor=#1A1A1A;labelBackgroundColor=none;fillColor=#F5AB50;" vertex="1" parent="1">
          <mxGeometry x="360" y="-340" width="202" height="232" as="geometry" />
        </mxCell>
        <mxCell id="sJF3YPYKDgFNLDfuukDZ-58" value="- id&amp;nbsp; &amp;nbsp; &amp;nbsp; &amp;nbsp; &amp;nbsp; &amp;nbsp; &amp;nbsp; &amp;nbsp; &amp;nbsp; &amp;nbsp; &amp;nbsp; &amp;nbsp; &amp;nbsp; &amp;nbsp; &amp;nbsp; &amp;nbsp; &amp;nbsp; &amp;nbsp; &amp;nbsp; &amp;nbsp;int" style="text;strokeColor=none;fillColor=none;align=left;verticalAlign=middle;spacingLeft=4;spacingRight=4;overflow=hidden;points=[[0,0.5],[1,0.5]];portConstraint=eastwest;rotatable=0;whiteSpace=wrap;html=1;labelBackgroundColor=none;fontColor=#1A1A1A;swimlaneLine=0;" vertex="1" parent="sJF3YPYKDgFNLDfuukDZ-57">
          <mxGeometry y="26" width="202" height="30" as="geometry" />
        </mxCell>
        <mxCell id="sJF3YPYKDgFNLDfuukDZ-60" value="- Fecha&amp;nbsp; &amp;nbsp; &amp;nbsp; &amp;nbsp; &amp;nbsp; &amp;nbsp; &amp;nbsp; &amp;nbsp; &amp;nbsp; &amp;nbsp; &amp;nbsp; string" style="text;strokeColor=none;fillColor=none;align=left;verticalAlign=middle;spacingLeft=4;spacingRight=4;overflow=hidden;points=[[0,0.5],[1,0.5]];portConstraint=eastwest;rotatable=0;whiteSpace=wrap;html=1;labelBackgroundColor=none;fontColor=#1A1A1A;swimlaneLine=0;" vertex="1" parent="sJF3YPYKDgFNLDfuukDZ-57">
          <mxGeometry y="56" width="202" height="30" as="geometry" />
        </mxCell>
        <mxCell id="sJF3YPYKDgFNLDfuukDZ-61" value="- Cliente_id&amp;nbsp; &amp;nbsp; &amp;nbsp; &amp;nbsp; &amp;nbsp; &amp;nbsp; &amp;nbsp;datetime" style="text;strokeColor=none;fillColor=none;align=left;verticalAlign=middle;spacingLeft=4;spacingRight=4;overflow=hidden;points=[[0,0.5],[1,0.5]];portConstraint=eastwest;rotatable=0;whiteSpace=wrap;html=1;labelBackgroundColor=none;fontColor=#1A1A1A;swimlaneLine=0;" vertex="1" parent="sJF3YPYKDgFNLDfuukDZ-57">
          <mxGeometry y="86" width="202" height="30" as="geometry" />
        </mxCell>
        <mxCell id="sJF3YPYKDgFNLDfuukDZ-62" value="- Empleados_id&amp;nbsp; &amp;nbsp; &amp;nbsp; &amp;nbsp;datetime" style="text;strokeColor=none;fillColor=none;align=left;verticalAlign=middle;spacingLeft=4;spacingRight=4;overflow=hidden;points=[[0,0.5],[1,0.5]];portConstraint=eastwest;rotatable=0;whiteSpace=wrap;html=1;labelBackgroundColor=none;fontColor=#1A1A1A;swimlaneLine=0;" vertex="1" parent="sJF3YPYKDgFNLDfuukDZ-57">
          <mxGeometry y="116" width="202" height="30" as="geometry" />
        </mxCell>
        <mxCell id="sJF3YPYKDgFNLDfuukDZ-63" value="" style="line;strokeWidth=1;fillColor=#F5AB50;align=center;verticalAlign=middle;spacingTop=-1;spacingLeft=3;spacingRight=3;rotatable=0;labelPosition=right;points=[];portConstraint=eastwest;strokeColor=#909090;fontFamily=Helvetica;fontSize=12;fontColor=#1A1A1A;fontStyle=0;labelBackgroundColor=none;" vertex="1" parent="sJF3YPYKDgFNLDfuukDZ-57">
          <mxGeometry y="146" width="202" height="8" as="geometry" />
        </mxCell>
        <mxCell id="sJF3YPYKDgFNLDfuukDZ-64" value="+ ingresarMaterial()" style="text;strokeColor=none;fillColor=none;align=left;verticalAlign=top;spacingLeft=4;spacingRight=4;overflow=hidden;rotatable=0;points=[[0,0.5],[1,0.5]];portConstraint=eastwest;whiteSpace=wrap;html=1;fontFamily=Helvetica;fontSize=12;fontColor=#1A1A1A;fontStyle=0;labelBackgroundColor=none;" vertex="1" parent="sJF3YPYKDgFNLDfuukDZ-57">
          <mxGeometry y="154" width="202" height="26" as="geometry" />
        </mxCell>
        <mxCell id="sJF3YPYKDgFNLDfuukDZ-65" value="+ editarMaterial()" style="text;strokeColor=none;fillColor=none;align=left;verticalAlign=top;spacingLeft=4;spacingRight=4;overflow=hidden;rotatable=0;points=[[0,0.5],[1,0.5]];portConstraint=eastwest;whiteSpace=wrap;html=1;fontFamily=Helvetica;fontSize=12;fontColor=#1A1A1A;fontStyle=0;labelBackgroundColor=none;" vertex="1" parent="sJF3YPYKDgFNLDfuukDZ-57">
          <mxGeometry y="180" width="202" height="26" as="geometry" />
        </mxCell>
        <mxCell id="sJF3YPYKDgFNLDfuukDZ-66" value="+ eliminarMaterial()" style="text;strokeColor=none;fillColor=none;align=left;verticalAlign=top;spacingLeft=4;spacingRight=4;overflow=hidden;rotatable=0;points=[[0,0.5],[1,0.5]];portConstraint=eastwest;whiteSpace=wrap;html=1;fontFamily=Helvetica;fontSize=12;fontColor=#1A1A1A;fontStyle=0;labelBackgroundColor=none;" vertex="1" parent="sJF3YPYKDgFNLDfuukDZ-57">
          <mxGeometry y="206" width="202" height="26" as="geometry" />
        </mxCell>
        <mxCell id="sJF3YPYKDgFNLDfuukDZ-67" style="edgeStyle=orthogonalEdgeStyle;rounded=0;orthogonalLoop=1;jettySize=auto;html=1;entryX=1;entryY=0.5;entryDx=0;entryDy=0;labelBackgroundColor=none;strokeColor=#182E3E;fontColor=default;startArrow=ERmandOne;startFill=0;endArrow=ERmany;endFill=0;swimlaneLine=0;exitX=1;exitY=0.5;exitDx=0;exitDy=0;" edge="1" parent="1" source="sJF3YPYKDgFNLDfuukDZ-60">
          <mxGeometry relative="1" as="geometry">
            <mxPoint x="997" y="-10" as="sourcePoint" />
            <mxPoint x="983" y="260" as="targetPoint" />
            <Array as="points">
              <mxPoint x="722" y="-350" />
              <mxPoint x="1071" y="-350" />
              <mxPoint x="1071" y="320" />
            </Array>
          </mxGeometry>
        </mxCell>
        <mxCell id="sJF3YPYKDgFNLDfuukDZ-68" value="&lt;font color=&quot;#ffffff&quot;&gt;Clientes&lt;/font&gt;" style="swimlane;fontStyle=0;align=center;verticalAlign=middle;childLayout=stackLayout;horizontal=1;startSize=26;horizontalStack=0;resizeParent=1;resizeParentMax=0;resizeLast=0;collapsible=1;marginBottom=0;whiteSpace=wrap;html=1;strokeColor=#909090;fontFamily=Helvetica;fontSize=12;fontColor=#1A1A1A;labelBackgroundColor=none;fillColor=#F5AB50;" vertex="1" parent="1">
          <mxGeometry x="775" y="912" width="199" height="232" as="geometry" />
        </mxCell>
        <mxCell id="sJF3YPYKDgFNLDfuukDZ-69" value="-id&amp;nbsp; &amp;nbsp; &amp;nbsp; &amp;nbsp; &amp;nbsp; &amp;nbsp; &amp;nbsp; &amp;nbsp; &amp;nbsp; &amp;nbsp; &amp;nbsp; &amp;nbsp; &amp;nbsp; &amp;nbsp; &amp;nbsp; &amp;nbsp; &amp;nbsp; &amp;nbsp; &amp;nbsp; &amp;nbsp; &amp;nbsp; int" style="text;strokeColor=none;fillColor=none;align=left;verticalAlign=middle;spacingLeft=4;spacingRight=4;overflow=hidden;points=[[0,0.5],[1,0.5]];portConstraint=eastwest;rotatable=0;whiteSpace=wrap;html=1;labelBackgroundColor=none;fontColor=#1A1A1A;swimlaneLine=0;" vertex="1" parent="sJF3YPYKDgFNLDfuukDZ-68">
          <mxGeometry y="26" width="199" height="30" as="geometry" />
        </mxCell>
        <object label="- Nombre&amp;nbsp; &amp;nbsp; &amp;nbsp; &amp;nbsp; &amp;nbsp; &amp;nbsp; &amp;nbsp; &amp;nbsp; &amp;nbsp; string" hoa="" id="sJF3YPYKDgFNLDfuukDZ-70">
          <mxCell style="text;strokeColor=none;fillColor=none;align=left;verticalAlign=middle;spacingLeft=4;spacingRight=4;overflow=hidden;points=[[0,0.5],[1,0.5]];portConstraint=eastwest;rotatable=0;whiteSpace=wrap;html=1;labelBackgroundColor=none;fontColor=#1A1A1A;swimlaneLine=0;" vertex="1" parent="sJF3YPYKDgFNLDfuukDZ-68">
            <mxGeometry y="56" width="199" height="30" as="geometry" />
          </mxCell>
        </object>
        <mxCell id="sJF3YPYKDgFNLDfuukDZ-71" value="- correo&amp;nbsp; &amp;nbsp; &amp;nbsp; &amp;nbsp; &amp;nbsp; &amp;nbsp;string" style="text;strokeColor=none;fillColor=none;align=left;verticalAlign=middle;spacingLeft=4;spacingRight=4;overflow=hidden;points=[[0,0.5],[1,0.5]];portConstraint=eastwest;rotatable=0;whiteSpace=wrap;html=1;labelBackgroundColor=none;fontColor=#1A1A1A;swimlaneLine=0;" vertex="1" parent="sJF3YPYKDgFNLDfuukDZ-68">
          <mxGeometry y="86" width="199" height="30" as="geometry" />
        </mxCell>
        <mxCell id="sJF3YPYKDgFNLDfuukDZ-72" value="- Telefono&amp;nbsp; &amp;nbsp; &amp;nbsp; &amp;nbsp; &amp;nbsp; string" style="text;strokeColor=none;fillColor=none;align=left;verticalAlign=middle;spacingLeft=4;spacingRight=4;overflow=hidden;points=[[0,0.5],[1,0.5]];portConstraint=eastwest;rotatable=0;whiteSpace=wrap;html=1;labelBackgroundColor=none;fontColor=#1A1A1A;swimlaneLine=0;" vertex="1" parent="sJF3YPYKDgFNLDfuukDZ-68">
          <mxGeometry y="116" width="199" height="30" as="geometry" />
        </mxCell>
        <mxCell id="sJF3YPYKDgFNLDfuukDZ-75" value="" style="line;strokeWidth=1;fillColor=#F5AB50;align=center;verticalAlign=middle;spacingTop=-1;spacingLeft=3;spacingRight=3;rotatable=0;labelPosition=right;points=[];portConstraint=eastwest;strokeColor=#909090;fontFamily=Helvetica;fontSize=12;fontColor=#1A1A1A;fontStyle=0;labelBackgroundColor=none;" vertex="1" parent="sJF3YPYKDgFNLDfuukDZ-68">
          <mxGeometry y="146" width="199" height="8" as="geometry" />
        </mxCell>
        <mxCell id="sJF3YPYKDgFNLDfuukDZ-76" value="+ ingresarRol()" style="text;strokeColor=none;fillColor=none;align=left;verticalAlign=top;spacingLeft=4;spacingRight=4;overflow=hidden;rotatable=0;points=[[0,0.5],[1,0.5]];portConstraint=eastwest;whiteSpace=wrap;html=1;fontFamily=Helvetica;fontSize=12;fontColor=#1A1A1A;fontStyle=0;labelBackgroundColor=none;" vertex="1" parent="sJF3YPYKDgFNLDfuukDZ-68">
          <mxGeometry y="154" width="199" height="26" as="geometry" />
        </mxCell>
        <mxCell id="sJF3YPYKDgFNLDfuukDZ-77" value="+ editarRol()" style="text;strokeColor=none;fillColor=none;align=left;verticalAlign=top;spacingLeft=4;spacingRight=4;overflow=hidden;rotatable=0;points=[[0,0.5],[1,0.5]];portConstraint=eastwest;whiteSpace=wrap;html=1;fontFamily=Helvetica;fontSize=12;fontColor=#1A1A1A;fontStyle=0;labelBackgroundColor=none;" vertex="1" parent="sJF3YPYKDgFNLDfuukDZ-68">
          <mxGeometry y="180" width="199" height="26" as="geometry" />
        </mxCell>
        <mxCell id="sJF3YPYKDgFNLDfuukDZ-78" value="+ eliminarRol()" style="text;strokeColor=none;fillColor=none;align=left;verticalAlign=top;spacingLeft=4;spacingRight=4;overflow=hidden;rotatable=0;points=[[0,0.5],[1,0.5]];portConstraint=eastwest;whiteSpace=wrap;html=1;fontFamily=Helvetica;fontSize=12;fontColor=#1A1A1A;fontStyle=0;labelBackgroundColor=none;" vertex="1" parent="sJF3YPYKDgFNLDfuukDZ-68">
          <mxGeometry y="206" width="199" height="26" as="geometry" />
        </mxCell>
        <mxCell id="sJF3YPYKDgFNLDfuukDZ-79" value="&lt;span style=&quot;color: rgb(255, 255, 255);&quot;&gt;Productos&lt;/span&gt;" style="swimlane;fontStyle=0;align=center;verticalAlign=middle;childLayout=stackLayout;horizontal=1;startSize=26;horizontalStack=0;resizeParent=1;resizeParentMax=0;resizeLast=0;collapsible=1;marginBottom=0;whiteSpace=wrap;html=1;strokeColor=#909090;fontFamily=Helvetica;fontSize=12;fontColor=#1A1A1A;labelBackgroundColor=none;fillColor=#F5AB50;" vertex="1" parent="1">
          <mxGeometry x="340" y="-700" width="202" height="292" as="geometry" />
        </mxCell>
        <mxCell id="sJF3YPYKDgFNLDfuukDZ-80" value="- id&amp;nbsp; &amp;nbsp; &amp;nbsp; &amp;nbsp; &amp;nbsp; &amp;nbsp; &amp;nbsp; &amp;nbsp; &amp;nbsp; &amp;nbsp; &amp;nbsp; &amp;nbsp; &amp;nbsp; &amp;nbsp; &amp;nbsp; &amp;nbsp; &amp;nbsp; &amp;nbsp; &amp;nbsp; &amp;nbsp;int" style="text;strokeColor=none;fillColor=none;align=left;verticalAlign=middle;spacingLeft=4;spacingRight=4;overflow=hidden;points=[[0,0.5],[1,0.5]];portConstraint=eastwest;rotatable=0;whiteSpace=wrap;html=1;labelBackgroundColor=none;fontColor=#1A1A1A;swimlaneLine=0;" vertex="1" parent="sJF3YPYKDgFNLDfuukDZ-79">
          <mxGeometry y="26" width="202" height="30" as="geometry" />
        </mxCell>
        <object label="- Nombre&amp;nbsp; &amp;nbsp; &amp;nbsp; &amp;nbsp; &amp;nbsp; &amp;nbsp; &amp;nbsp; &amp;nbsp; &amp;nbsp; &amp;nbsp; &amp;nbsp; &amp;nbsp; &amp;nbsp; &amp;nbsp;string" hoa="" id="sJF3YPYKDgFNLDfuukDZ-81">
          <mxCell style="text;strokeColor=none;fillColor=none;align=left;verticalAlign=middle;spacingLeft=4;spacingRight=4;overflow=hidden;points=[[0,0.5],[1,0.5]];portConstraint=eastwest;rotatable=0;whiteSpace=wrap;html=1;labelBackgroundColor=none;fontColor=#1A1A1A;swimlaneLine=0;" vertex="1" parent="sJF3YPYKDgFNLDfuukDZ-79">
            <mxGeometry y="56" width="202" height="30" as="geometry" />
          </mxCell>
        </object>
        <mxCell id="sJF3YPYKDgFNLDfuukDZ-82" value="- Marca&amp;nbsp; &amp;nbsp; &amp;nbsp; &amp;nbsp; &amp;nbsp; &amp;nbsp; &amp;nbsp; &amp;nbsp; &amp;nbsp; &amp;nbsp; &amp;nbsp; &amp;nbsp; &amp;nbsp; &amp;nbsp; &amp;nbsp; &amp;nbsp;string" style="text;strokeColor=none;fillColor=none;align=left;verticalAlign=middle;spacingLeft=4;spacingRight=4;overflow=hidden;points=[[0,0.5],[1,0.5]];portConstraint=eastwest;rotatable=0;whiteSpace=wrap;html=1;labelBackgroundColor=none;fontColor=#1A1A1A;swimlaneLine=0;" vertex="1" parent="sJF3YPYKDgFNLDfuukDZ-79">
          <mxGeometry y="86" width="202" height="30" as="geometry" />
        </mxCell>
        <mxCell id="sJF3YPYKDgFNLDfuukDZ-83" value="- Tallas&amp;nbsp; &amp;nbsp; &amp;nbsp; &amp;nbsp; &amp;nbsp; &amp;nbsp; &amp;nbsp; &amp;nbsp; &amp;nbsp; &amp;nbsp; &amp;nbsp; &amp;nbsp; &amp;nbsp; &amp;nbsp;datetime" style="text;strokeColor=none;fillColor=none;align=left;verticalAlign=middle;spacingLeft=4;spacingRight=4;overflow=hidden;points=[[0,0.5],[1,0.5]];portConstraint=eastwest;rotatable=0;whiteSpace=wrap;html=1;labelBackgroundColor=none;fontColor=#1A1A1A;swimlaneLine=0;" vertex="1" parent="sJF3YPYKDgFNLDfuukDZ-79">
          <mxGeometry y="116" width="202" height="30" as="geometry" />
        </mxCell>
        <mxCell id="sJF3YPYKDgFNLDfuukDZ-100" value="- Precio&amp;nbsp; &amp;nbsp; &amp;nbsp; &amp;nbsp; &amp;nbsp; &amp;nbsp; &amp;nbsp; &amp;nbsp; &amp;nbsp; &amp;nbsp; &amp;nbsp; &amp;nbsp; datetime" style="text;strokeColor=none;fillColor=none;align=left;verticalAlign=middle;spacingLeft=4;spacingRight=4;overflow=hidden;points=[[0,0.5],[1,0.5]];portConstraint=eastwest;rotatable=0;whiteSpace=wrap;html=1;labelBackgroundColor=none;fontColor=#1A1A1A;swimlaneLine=0;" vertex="1" parent="sJF3YPYKDgFNLDfuukDZ-79">
          <mxGeometry y="146" width="202" height="30" as="geometry" />
        </mxCell>
        <mxCell id="sJF3YPYKDgFNLDfuukDZ-84" value="- Stock&amp;nbsp; &amp;nbsp; &amp;nbsp; &amp;nbsp; &amp;nbsp; &amp;nbsp; &amp;nbsp; &amp;nbsp; &amp;nbsp; &amp;nbsp; &amp;nbsp; &amp;nbsp; &amp;nbsp; &amp;nbsp;datetime" style="text;strokeColor=none;fillColor=none;align=left;verticalAlign=middle;spacingLeft=4;spacingRight=4;overflow=hidden;points=[[0,0.5],[1,0.5]];portConstraint=eastwest;rotatable=0;whiteSpace=wrap;html=1;labelBackgroundColor=none;fontColor=#1A1A1A;swimlaneLine=0;" vertex="1" parent="sJF3YPYKDgFNLDfuukDZ-79">
          <mxGeometry y="176" width="202" height="30" as="geometry" />
        </mxCell>
        <mxCell id="sJF3YPYKDgFNLDfuukDZ-85" value="" style="line;strokeWidth=1;fillColor=#F5AB50;align=center;verticalAlign=middle;spacingTop=-1;spacingLeft=3;spacingRight=3;rotatable=0;labelPosition=right;points=[];portConstraint=eastwest;strokeColor=#909090;fontFamily=Helvetica;fontSize=12;fontColor=#1A1A1A;fontStyle=0;labelBackgroundColor=none;" vertex="1" parent="sJF3YPYKDgFNLDfuukDZ-79">
          <mxGeometry y="206" width="202" height="8" as="geometry" />
        </mxCell>
        <mxCell id="sJF3YPYKDgFNLDfuukDZ-86" value="+ ingresarMaterial()" style="text;strokeColor=none;fillColor=none;align=left;verticalAlign=top;spacingLeft=4;spacingRight=4;overflow=hidden;rotatable=0;points=[[0,0.5],[1,0.5]];portConstraint=eastwest;whiteSpace=wrap;html=1;fontFamily=Helvetica;fontSize=12;fontColor=#1A1A1A;fontStyle=0;labelBackgroundColor=none;" vertex="1" parent="sJF3YPYKDgFNLDfuukDZ-79">
          <mxGeometry y="214" width="202" height="26" as="geometry" />
        </mxCell>
        <mxCell id="sJF3YPYKDgFNLDfuukDZ-87" value="+ editarMaterial()" style="text;strokeColor=none;fillColor=none;align=left;verticalAlign=top;spacingLeft=4;spacingRight=4;overflow=hidden;rotatable=0;points=[[0,0.5],[1,0.5]];portConstraint=eastwest;whiteSpace=wrap;html=1;fontFamily=Helvetica;fontSize=12;fontColor=#1A1A1A;fontStyle=0;labelBackgroundColor=none;" vertex="1" parent="sJF3YPYKDgFNLDfuukDZ-79">
          <mxGeometry y="240" width="202" height="26" as="geometry" />
        </mxCell>
        <mxCell id="sJF3YPYKDgFNLDfuukDZ-88" value="+ eliminarMaterial()" style="text;strokeColor=none;fillColor=none;align=left;verticalAlign=top;spacingLeft=4;spacingRight=4;overflow=hidden;rotatable=0;points=[[0,0.5],[1,0.5]];portConstraint=eastwest;whiteSpace=wrap;html=1;fontFamily=Helvetica;fontSize=12;fontColor=#1A1A1A;fontStyle=0;labelBackgroundColor=none;" vertex="1" parent="sJF3YPYKDgFNLDfuukDZ-79">
          <mxGeometry y="266" width="202" height="26" as="geometry" />
        </mxCell>
        <mxCell id="sJF3YPYKDgFNLDfuukDZ-89" value="&lt;font color=&quot;#ffffff&quot;&gt;Proveedores&lt;/font&gt;" style="swimlane;fontStyle=0;align=center;verticalAlign=middle;childLayout=stackLayout;horizontal=1;startSize=26;horizontalStack=0;resizeParent=1;resizeParentMax=0;resizeLast=0;collapsible=1;marginBottom=0;whiteSpace=wrap;html=1;strokeColor=#909090;fontFamily=Helvetica;fontSize=12;fontColor=#1A1A1A;labelBackgroundColor=none;fillColor=#F5AB50;" vertex="1" parent="1">
          <mxGeometry x="779" y="1590" width="220" height="292" as="geometry" />
        </mxCell>
        <mxCell id="sJF3YPYKDgFNLDfuukDZ-90" value="- id&amp;nbsp; &amp;nbsp; &amp;nbsp; &amp;nbsp; &amp;nbsp; &amp;nbsp; &amp;nbsp; &amp;nbsp; &amp;nbsp; &amp;nbsp; &amp;nbsp; &amp;nbsp; &amp;nbsp; &amp;nbsp; &amp;nbsp; &amp;nbsp; &amp;nbsp; &amp;nbsp; &amp;nbsp; &amp;nbsp; &amp;nbsp; &amp;nbsp; &amp;nbsp; &amp;nbsp;int" style="text;strokeColor=none;fillColor=none;align=left;verticalAlign=middle;spacingLeft=4;spacingRight=4;overflow=hidden;points=[[0,0.5],[1,0.5]];portConstraint=eastwest;rotatable=0;whiteSpace=wrap;html=1;labelBackgroundColor=none;fontColor=#1A1A1A;swimlaneLine=0;" vertex="1" parent="sJF3YPYKDgFNLDfuukDZ-89">
          <mxGeometry y="26" width="220" height="30" as="geometry" />
        </mxCell>
        <object label="- Actividad&amp;nbsp; &amp;nbsp; &amp;nbsp; &amp;nbsp; &amp;nbsp; &amp;nbsp; &amp;nbsp; &amp;nbsp; &amp;nbsp; &amp;nbsp; &amp;nbsp; &amp;nbsp; &amp;nbsp; &amp;nbsp; &amp;nbsp; &amp;nbsp; &amp;nbsp; string" hoa="" id="sJF3YPYKDgFNLDfuukDZ-91">
          <mxCell style="text;strokeColor=none;fillColor=none;align=left;verticalAlign=middle;spacingLeft=4;spacingRight=4;overflow=hidden;points=[[0,0.5],[1,0.5]];portConstraint=eastwest;rotatable=0;whiteSpace=wrap;html=1;labelBackgroundColor=none;fontColor=#1A1A1A;swimlaneLine=0;" vertex="1" parent="sJF3YPYKDgFNLDfuukDZ-89">
            <mxGeometry y="56" width="220" height="30" as="geometry" />
          </mxCell>
        </object>
        <mxCell id="sJF3YPYKDgFNLDfuukDZ-92" value="- Descripción Materiales&amp;nbsp; &amp;nbsp; &amp;nbsp; &amp;nbsp; &amp;nbsp; &amp;nbsp; string" style="text;strokeColor=none;fillColor=none;align=left;verticalAlign=middle;spacingLeft=4;spacingRight=4;overflow=hidden;points=[[0,0.5],[1,0.5]];portConstraint=eastwest;rotatable=0;whiteSpace=wrap;html=1;labelBackgroundColor=none;fontColor=#1A1A1A;swimlaneLine=0;" vertex="1" parent="sJF3YPYKDgFNLDfuukDZ-89">
          <mxGeometry y="86" width="220" height="30" as="geometry" />
        </mxCell>
        <mxCell id="sJF3YPYKDgFNLDfuukDZ-93" value="- Costos&amp;nbsp; &amp;nbsp; &amp;nbsp; &amp;nbsp; &amp;nbsp; &amp;nbsp; &amp;nbsp; &amp;nbsp; &amp;nbsp; &amp;nbsp; &amp;nbsp; &amp;nbsp; &amp;nbsp; &amp;nbsp; &amp;nbsp; &amp;nbsp; &amp;nbsp; &amp;nbsp; &amp;nbsp; &amp;nbsp;float" style="text;strokeColor=none;fillColor=none;align=left;verticalAlign=middle;spacingLeft=4;spacingRight=4;overflow=hidden;points=[[0,0.5],[1,0.5]];portConstraint=eastwest;rotatable=0;whiteSpace=wrap;html=1;labelBackgroundColor=none;fontColor=#1A1A1A;swimlaneLine=0;" vertex="1" parent="sJF3YPYKDgFNLDfuukDZ-89">
          <mxGeometry y="116" width="220" height="30" as="geometry" />
        </mxCell>
        <mxCell id="sJF3YPYKDgFNLDfuukDZ-94" value="- Fecha de Creación&amp;nbsp; &amp;nbsp; &amp;nbsp; &amp;nbsp; &amp;nbsp; &amp;nbsp; &amp;nbsp;datetime" style="text;strokeColor=none;fillColor=none;align=left;verticalAlign=middle;spacingLeft=4;spacingRight=4;overflow=hidden;points=[[0,0.5],[1,0.5]];portConstraint=eastwest;rotatable=0;whiteSpace=wrap;html=1;labelBackgroundColor=none;fontColor=#1A1A1A;swimlaneLine=0;" vertex="1" parent="sJF3YPYKDgFNLDfuukDZ-89">
          <mxGeometry y="146" width="220" height="30" as="geometry" />
        </mxCell>
        <mxCell id="sJF3YPYKDgFNLDfuukDZ-95" value="- Fecha de Actualización&amp;nbsp; &amp;nbsp; &amp;nbsp; &amp;nbsp; &amp;nbsp;datetime" style="text;strokeColor=none;fillColor=none;align=left;verticalAlign=middle;spacingLeft=4;spacingRight=4;overflow=hidden;points=[[0,0.5],[1,0.5]];portConstraint=eastwest;rotatable=0;whiteSpace=wrap;html=1;labelBackgroundColor=none;fontColor=#1A1A1A;swimlaneLine=0;" vertex="1" parent="sJF3YPYKDgFNLDfuukDZ-89">
          <mxGeometry y="176" width="220" height="30" as="geometry" />
        </mxCell>
        <mxCell id="sJF3YPYKDgFNLDfuukDZ-96" value="" style="line;strokeWidth=1;fillColor=#F5AB50;align=center;verticalAlign=middle;spacingTop=-1;spacingLeft=3;spacingRight=3;rotatable=0;labelPosition=right;points=[];portConstraint=eastwest;strokeColor=#909090;fontFamily=Helvetica;fontSize=12;fontColor=#1A1A1A;fontStyle=0;labelBackgroundColor=none;" vertex="1" parent="sJF3YPYKDgFNLDfuukDZ-89">
          <mxGeometry y="206" width="220" height="8" as="geometry" />
        </mxCell>
        <mxCell id="sJF3YPYKDgFNLDfuukDZ-97" value="+ ingresarMaterial()" style="text;strokeColor=none;fillColor=none;align=left;verticalAlign=top;spacingLeft=4;spacingRight=4;overflow=hidden;rotatable=0;points=[[0,0.5],[1,0.5]];portConstraint=eastwest;whiteSpace=wrap;html=1;fontFamily=Helvetica;fontSize=12;fontColor=#1A1A1A;fontStyle=0;labelBackgroundColor=none;" vertex="1" parent="sJF3YPYKDgFNLDfuukDZ-89">
          <mxGeometry y="214" width="220" height="26" as="geometry" />
        </mxCell>
        <mxCell id="sJF3YPYKDgFNLDfuukDZ-98" value="+ editarMaterial()" style="text;strokeColor=none;fillColor=none;align=left;verticalAlign=top;spacingLeft=4;spacingRight=4;overflow=hidden;rotatable=0;points=[[0,0.5],[1,0.5]];portConstraint=eastwest;whiteSpace=wrap;html=1;fontFamily=Helvetica;fontSize=12;fontColor=#1A1A1A;fontStyle=0;labelBackgroundColor=none;" vertex="1" parent="sJF3YPYKDgFNLDfuukDZ-89">
          <mxGeometry y="240" width="220" height="26" as="geometry" />
        </mxCell>
        <mxCell id="sJF3YPYKDgFNLDfuukDZ-99" value="+ eliminarMaterial()" style="text;strokeColor=none;fillColor=none;align=left;verticalAlign=top;spacingLeft=4;spacingRight=4;overflow=hidden;rotatable=0;points=[[0,0.5],[1,0.5]];portConstraint=eastwest;whiteSpace=wrap;html=1;fontFamily=Helvetica;fontSize=12;fontColor=#1A1A1A;fontStyle=0;labelBackgroundColor=none;" vertex="1" parent="sJF3YPYKDgFNLDfuukDZ-89">
          <mxGeometry y="266" width="220" height="26" as="geometry" />
        </mxCell>
        <object label="&lt;font color=&quot;#ffffff&quot;&gt;Proveedores&lt;/font&gt;" id="sJF3YPYKDgFNLDfuukDZ-101">
          <mxCell style="swimlane;fontStyle=0;align=center;verticalAlign=middle;childLayout=stackLayout;horizontal=1;startSize=26;horizontalStack=0;resizeParent=1;resizeParentMax=0;resizeLast=0;collapsible=1;marginBottom=0;whiteSpace=wrap;html=1;strokeColor=#909090;fontFamily=Helvetica;fontSize=12;fontColor=#1A1A1A;labelBackgroundColor=none;fillColor=#F5AB50;" vertex="1" parent="1">
            <mxGeometry x="350" y="220" width="203" height="202" as="geometry" />
          </mxCell>
        </object>
        <object label="- id&amp;nbsp; &amp;nbsp; &amp;nbsp; &amp;nbsp; &amp;nbsp; &amp;nbsp; &amp;nbsp; &amp;nbsp; &amp;nbsp; &amp;nbsp; &amp;nbsp; &amp;nbsp; &amp;nbsp; &amp;nbsp; &amp;nbsp; &amp;nbsp; &amp;nbsp; &amp;nbsp; &amp;nbsp; &amp;nbsp; &amp;nbsp;int" id="sJF3YPYKDgFNLDfuukDZ-102">
          <mxCell style="text;strokeColor=none;fillColor=none;align=left;verticalAlign=middle;spacingLeft=4;spacingRight=4;overflow=hidden;points=[[0,0.5],[1,0.5]];portConstraint=eastwest;rotatable=0;whiteSpace=wrap;html=1;labelBackgroundColor=none;fontColor=#1A1A1A;swimlaneLine=0;" vertex="1" parent="sJF3YPYKDgFNLDfuukDZ-101">
            <mxGeometry y="26" width="203" height="30" as="geometry" />
          </mxCell>
        </object>
        <object label="- nombre&amp;nbsp; &amp;nbsp; &amp;nbsp; &amp;nbsp; &amp;nbsp; &amp;nbsp; &amp;nbsp; &amp;nbsp; &amp;nbsp; &amp;nbsp; &amp;nbsp; &amp;nbsp; &amp;nbsp; &amp;nbsp; &amp;nbsp; int" hoa="" id="sJF3YPYKDgFNLDfuukDZ-103">
          <mxCell style="text;strokeColor=none;fillColor=none;align=left;verticalAlign=middle;spacingLeft=4;spacingRight=4;overflow=hidden;points=[[0,0.5],[1,0.5]];portConstraint=eastwest;rotatable=0;whiteSpace=wrap;html=1;labelBackgroundColor=none;fontColor=#1A1A1A;swimlaneLine=0;" vertex="1" parent="sJF3YPYKDgFNLDfuukDZ-101">
            <mxGeometry y="56" width="203" height="30" as="geometry" />
          </mxCell>
        </object>
        <mxCell id="sJF3YPYKDgFNLDfuukDZ-104" value="- contacto&amp;nbsp; &amp;nbsp; &amp;nbsp; &amp;nbsp; &amp;nbsp; &amp;nbsp; &amp;nbsp; &amp;nbsp; &amp;nbsp; &amp;nbsp; &amp;nbsp;string" style="text;strokeColor=none;fillColor=none;align=left;verticalAlign=middle;spacingLeft=4;spacingRight=4;overflow=hidden;points=[[0,0.5],[1,0.5]];portConstraint=eastwest;rotatable=0;whiteSpace=wrap;html=1;labelBackgroundColor=none;fontColor=#1A1A1A;swimlaneLine=0;" vertex="1" parent="sJF3YPYKDgFNLDfuukDZ-101">
          <mxGeometry y="86" width="203" height="30" as="geometry" />
        </mxCell>
        <mxCell id="sJF3YPYKDgFNLDfuukDZ-105" value="" style="line;strokeWidth=1;fillColor=#F5AB50;align=center;verticalAlign=middle;spacingTop=-1;spacingLeft=3;spacingRight=3;rotatable=0;labelPosition=right;points=[];portConstraint=eastwest;strokeColor=#909090;fontFamily=Helvetica;fontSize=12;fontColor=#1A1A1A;fontStyle=0;labelBackgroundColor=none;" vertex="1" parent="sJF3YPYKDgFNLDfuukDZ-101">
          <mxGeometry y="116" width="203" height="8" as="geometry" />
        </mxCell>
        <mxCell id="sJF3YPYKDgFNLDfuukDZ-106" value="+ ingresarActividad()" style="text;strokeColor=none;fillColor=none;align=left;verticalAlign=top;spacingLeft=4;spacingRight=4;overflow=hidden;rotatable=0;points=[[0,0.5],[1,0.5]];portConstraint=eastwest;whiteSpace=wrap;html=1;fontFamily=Helvetica;fontSize=12;fontColor=#1A1A1A;fontStyle=0;labelBackgroundColor=none;" vertex="1" parent="sJF3YPYKDgFNLDfuukDZ-101">
          <mxGeometry y="124" width="203" height="26" as="geometry" />
        </mxCell>
        <mxCell id="sJF3YPYKDgFNLDfuukDZ-107" value="+ editarActividad()" style="text;strokeColor=none;fillColor=none;align=left;verticalAlign=top;spacingLeft=4;spacingRight=4;overflow=hidden;rotatable=0;points=[[0,0.5],[1,0.5]];portConstraint=eastwest;whiteSpace=wrap;html=1;fontFamily=Helvetica;fontSize=12;fontColor=#1A1A1A;fontStyle=0;labelBackgroundColor=none;" vertex="1" parent="sJF3YPYKDgFNLDfuukDZ-101">
          <mxGeometry y="150" width="203" height="26" as="geometry" />
        </mxCell>
        <mxCell id="sJF3YPYKDgFNLDfuukDZ-108" value="+ eliminarActividad()" style="text;strokeColor=none;fillColor=none;align=left;verticalAlign=top;spacingLeft=4;spacingRight=4;overflow=hidden;rotatable=0;points=[[0,0.5],[1,0.5]];portConstraint=eastwest;whiteSpace=wrap;html=1;fontFamily=Helvetica;fontSize=12;fontColor=#1A1A1A;fontStyle=0;labelBackgroundColor=none;" vertex="1" parent="sJF3YPYKDgFNLDfuukDZ-101">
          <mxGeometry y="176" width="203" height="26" as="geometry" />
        </mxCell>
      </root>
    </mxGraphModel>
  </diagram>
</mxfile>
